<svg width="24" height="31" viewBox="0 0 24 31" fill="none" xmlns="http://www.w3.org/2000/svg">
<path fill-rule="evenodd" clip-rule="evenodd" d="M0 4.5C0 3.30653 0.474106 2.16193 1.31802 1.31802C2.16193 0.474106 3.30653 0 4.5 0H19.5C20.6935 0 21.8381 0.474106 22.682 1.31802C23.5259 2.16193 24 3.30653 24 4.5V28.542C24 30.372 21.93 31.437 20.442 30.3735L12 24.3435L3.558 30.3735C2.0685 31.4385 0 30.3735 0 28.5435V4.5ZM4.5 3C4.10218 3 3.72064 3.15804 3.43934 3.43934C3.15804 3.72064 3 4.10218 3 4.5V27.0855L10.692 21.591C11.0736 21.3183 11.531 21.1717 12 21.1717C12.469 21.1717 12.9264 21.3183 13.308 21.591L21 27.0855V4.5C21 4.10218 20.842 3.72064 20.5607 3.43934C20.2794 3.15804 19.8978 3 19.5 3H4.5Z" fill="#0E65E7"/>
</svg>
