<svg width="32" height="26" viewBox="0 0 32 26" fill="none" xmlns="http://www.w3.org/2000/svg">
<path d="M30.625 0.660158H22.5813C20.8551 0.660158 19.1676 1.15586 17.7156 2.09102L16 3.19141L14.2844 2.09102C12.8339 1.15604 11.1445 0.659235 9.41875 0.660158H1.375C0.752734 0.660158 0.25 1.16289 0.25 1.78516V21.7539C0.25 22.3762 0.752734 22.8789 1.375 22.8789H9.41875C11.1449 22.8789 12.8324 23.3746 14.2844 24.3098L15.8453 25.3152C15.891 25.3434 15.9437 25.3609 15.9965 25.3609C16.0492 25.3609 16.102 25.3469 16.1477 25.3152L17.7086 24.3098C19.1641 23.3746 20.8551 22.8789 22.5813 22.8789H30.625C31.2473 22.8789 31.75 22.3762 31.75 21.7539V1.78516C31.75 1.16289 31.2473 0.660158 30.625 0.660158ZM9.41875 20.3477H2.78125V3.19141H9.41875C10.6633 3.19141 11.8727 3.54649 12.9168 4.21797L14.6324 5.31836L14.875 5.47656V21.7188C13.2016 20.8188 11.3312 20.3477 9.41875 20.3477ZM29.2188 20.3477H22.5813C20.6688 20.3477 18.7984 20.8188 17.125 21.7188V5.47656L17.3676 5.31836L19.0832 4.21797C20.1273 3.54649 21.3367 3.19141 22.5813 3.19141H29.2188V20.3477ZM11.9535 7.69141H5.42148C5.28438 7.69141 5.17188 7.81094 5.17188 7.95508V9.53711C5.17188 9.68125 5.28438 9.80078 5.42148 9.80078H11.95C12.0871 9.80078 12.1996 9.68125 12.1996 9.53711V7.95508C12.2031 7.81094 12.0906 7.69141 11.9535 7.69141ZM19.7969 7.95508V9.53711C19.7969 9.68125 19.9094 9.80078 20.0465 9.80078H26.575C26.7121 9.80078 26.8246 9.68125 26.8246 9.53711V7.95508C26.8246 7.81094 26.7121 7.69141 26.575 7.69141H20.0465C19.9094 7.69141 19.7969 7.81094 19.7969 7.95508ZM11.9535 12.6133H5.42148C5.28438 12.6133 5.17188 12.7328 5.17188 12.877V14.459C5.17188 14.6031 5.28438 14.7227 5.42148 14.7227H11.95C12.0871 14.7227 12.1996 14.6031 12.1996 14.459V12.877C12.2031 12.7328 12.0906 12.6133 11.9535 12.6133ZM26.5785 12.6133H20.0465C19.9094 12.6133 19.7969 12.7328 19.7969 12.877V14.459C19.7969 14.6031 19.9094 14.7227 20.0465 14.7227H26.575C26.7121 14.7227 26.8246 14.6031 26.8246 14.459V12.877C26.8281 12.7328 26.7156 12.6133 26.5785 12.6133Z" fill="#0E65E7"/>
</svg>
