<svg width="30" height="30" viewBox="0 0 30 30" fill="none" xmlns="http://www.w3.org/2000/svg">
<path fill-rule="evenodd" clip-rule="evenodd" d="M15 3.00006C12.9012 2.99968 10.8389 3.54979 9.01909 4.5955C7.19928 5.64121 5.68557 7.14594 4.62904 8.95949C3.57251 10.773 3.01013 12.832 2.99802 14.9308C2.9859 17.0296 3.52449 19.0949 4.56002 20.9206C5.25993 20.0109 6.15966 19.2744 7.18964 18.768C8.21963 18.2616 9.35227 17.9989 10.5 18.0001H19.5C20.6478 17.9989 21.7804 18.2616 22.8104 18.768C23.8404 19.2744 24.7401 20.0109 25.44 20.9206C26.4755 19.0949 27.0141 17.0296 27.002 14.9308C26.9899 12.832 26.4275 10.773 25.371 8.95949C24.3145 7.14594 22.8008 5.64121 20.9809 4.5955C19.1611 3.54979 17.0989 2.99968 15 3.00006ZM26.9145 24.1141C27.1025 23.8691 27.2825 23.6181 27.4545 23.3611C29.1175 20.8901 30.0039 17.9785 30 15.0001C30 6.71556 23.2845 6.10352e-05 15 6.10352e-05C6.71552 6.10352e-05 1.53832e-05 6.71556 1.53832e-05 15.0001C-0.0047116 18.2952 1.08008 21.4995 3.08552 24.1141L3.07802 24.1411L3.61052 24.7606C5.01734 26.4053 6.76409 27.7255 8.73036 28.63C10.6966 29.5346 12.8357 30.002 15 30.0001C15.324 30.0001 15.646 29.9901 15.966 29.9701C18.6726 29.7994 21.2815 28.8945 23.5125 27.3526C24.5795 26.6165 25.5465 25.7452 26.3895 24.7606L26.922 24.1411L26.9145 24.1141ZM15 6.00006C13.8065 6.00006 12.6619 6.47417 11.818 7.31808C10.9741 8.16199 10.5 9.30659 10.5 10.5001C10.5 11.6935 10.9741 12.8381 11.818 13.682C12.6619 14.526 13.8065 15.0001 15 15.0001C16.1935 15.0001 17.3381 14.526 18.182 13.682C19.0259 12.8381 19.5 11.6935 19.5 10.5001C19.5 9.30659 19.0259 8.16199 18.182 7.31808C17.3381 6.47417 16.1935 6.00006 15 6.00006Z" fill="#0E65E7"/>
</svg>
