<svg width="24" height="24" viewBox="0 0 24 24" fill="none" xmlns="http://www.w3.org/2000/svg">
<path d="M14.1912 16.3103C12.3549 17.616 10.0951 18.1841 7.8597 17.902C5.6243 17.6199 3.57642 16.5083 2.12195 14.7874C0.667467 13.0664 -0.0874636 10.8618 0.00677012 8.61051C0.101004 6.35916 1.03752 4.22538 2.63073 2.63204C4.22393 1.03871 6.35753 0.102111 8.60869 0.00786941C10.8598 -0.0863722 13.0643 0.668621 14.785 2.12322C16.5058 3.57782 17.6174 5.62586 17.8994 7.86145C18.1815 10.097 17.6134 12.357 16.3078 14.1935L23.5222 21.4065C23.6694 21.5436 23.7874 21.709 23.8693 21.8927C23.9511 22.0764 23.9951 22.2748 23.9987 22.4759C24.0022 22.677 23.9652 22.8767 23.8899 23.0632C23.8146 23.2497 23.7025 23.4191 23.5603 23.5613C23.4181 23.7035 23.2487 23.8157 23.0622 23.891C22.8757 23.9663 22.676 24.0033 22.4749 23.9998C22.2738 23.9962 22.0755 23.9522 21.8918 23.8703C21.7081 23.7885 21.5427 23.6705 21.4056 23.5233L14.1912 16.3103ZM14.976 8.98541C14.976 7.39652 14.3448 5.87272 13.2214 4.74921C12.098 3.6257 10.5743 2.99452 8.98556 2.99452C7.39681 2.99452 5.87313 3.6257 4.74971 4.74921C3.62629 5.87272 2.99517 7.39652 2.99517 8.98541C2.99517 10.5743 3.62629 12.0981 4.74971 13.2216C5.87313 14.3451 7.39681 14.9763 8.98556 14.9763C10.5743 14.9763 12.098 14.3451 13.2214 13.2216C14.3448 12.0981 14.976 10.5743 14.976 8.98541Z" fill="#0E65E7"/>
</svg>
